<svg preserveAspectRatio="none" width="100%" height="100%" overflow="visible" style="display: block;" viewBox="0 0 19.5 19.5" fill="none" xmlns="http://www.w3.org/2000/svg">
<g id="Vector">
<path d="M8.95001 12.95H10.55V14.55H8.95001V12.95Z" fill="var(--fill-0, black)"/>
<path d="M8.5 4.5C7.25736 4.5 6.25 5.50736 6.25 6.75V7.75H7.75V6.75C7.75 6.33579 8.08579 6 8.5 6H11C11.4142 6 11.75 6.33579 11.75 6.75V7.85955C11.75 8.13401 11.6001 8.38655 11.3591 8.51797L9.91201 9.30732C9.3498 9.61397 9 10.2032 9 10.8436V11.75H10.5V10.8436C10.5 10.7521 10.55 10.668 10.6303 10.6242L12.0774 9.83482C12.8003 9.44054 13.25 8.68293 13.25 7.85955V6.75C13.25 5.50736 12.2426 4.5 11 4.5H8.5Z" fill="var(--fill-0, black)"/>
<path fill-rule="evenodd" clip-rule="evenodd" d="M0 9.75C0 4.36522 4.36522 0 9.75 0C15.1348 0 19.5 4.36522 19.5 9.75C19.5 15.1348 15.1348 19.5 9.75 19.5C4.36522 19.5 0 15.1348 0 9.75ZM9.75 1.5C5.19365 1.5 1.5 5.19365 1.5 9.75C1.5 14.3063 5.19365 18 9.75 18C14.3063 18 18 14.3063 18 9.75C18 5.19365 14.3063 1.5 9.75 1.5Z" fill="var(--fill-0, black)"/>
</g>
</svg>
